<svg width="210" height="70" viewBox="0 0 210 70" fill="none" xmlns="http://www.w3.org/2000/svg">
<path d="M0.810303 65.0973H28.132V0H0.810303V65.0973Z" fill="#FDCE00"/>
<path d="M25.4113 29.0608C25.4113 13.0115 38.388 1.52588e-05 54.3943 1.52588e-05V58.1216C38.388 58.1216 25.4113 45.1101 25.4113 29.0608Z" fill="white"/>
<path d="M65.4007 48.474C76.0936 48.474 84.7619 39.7824 84.7619 29.0608C84.7619 18.3392 76.0936 9.64759 65.4007 9.64759C54.7078 9.64759 46.0395 18.3392 46.0395 29.0608C46.0395 39.7824 54.7078 48.474 65.4007 48.474Z" fill="#FF452B"/>
<path d="M96.4423 0.147522C100.162 0.147522 101.987 2.21602 101.987 6.01221V8.3507C101.987 12.1484 100.161 14.2154 96.4423 14.2154H94.6839V23.8777H90.9641V0.147522H96.4423ZM96.4423 10.8264C97.6253 10.8264 98.2683 10.2835 98.2683 8.58824V5.77467C98.2683 4.07944 97.6253 3.53797 96.4423 3.53797H94.6839V10.8264H96.4423Z" fill="white"/>
<path d="M104.016 0.147522H107.736V9.80986H111.725V0.147522H115.444V23.8777H111.725V13.1988H107.736V23.8777H104.016V0.147522Z" fill="white"/>
<path d="M118.08 18.2506V0.147522H121.8V18.5221C121.8 20.2173 122.51 20.8281 123.693 20.8281C124.876 20.8281 125.587 20.2173 125.587 18.5221V0.147522H129.172V18.2506C129.172 22.0482 127.278 24.2171 123.627 24.2171C119.976 24.2171 118.083 22.0468 118.083 18.2506H118.08Z" fill="white"/>
<path d="M131.807 0.147522H137.116L139.482 17.1322H139.55L141.916 0.147522H147.225V23.8777H143.708V5.9104H143.64L140.936 23.8777H137.825L135.121 5.9104H135.053V23.8777H131.807V0.147522Z" fill="white"/>
<path d="M149.997 0.147522H160.14V3.53797H153.715V9.80987H158.821V13.2003H153.715V20.4888H160.14V23.8792H149.997V0.147522Z" fill="white"/>
<path d="M162.269 0.147522H165.988V20.4888H172.108V23.8792H162.269V0.147522Z" fill="white"/>
<path d="M173.899 0.147522H184.042V3.53797H177.617V9.80987H182.723V13.2003H177.617V20.4888H184.042V23.8792H173.899V0.147522Z" fill="white"/>
<path d="M186.172 0.147522H189.892V20.4888H196.012V23.8792H186.172V0.147522Z" fill="white"/>
<path d="M200.812 0.147522H205.85L209.704 23.8777H205.984L205.307 19.1653V19.2332H201.081L200.404 23.8777H196.955L200.812 0.147522ZM204.868 16.0139L203.212 4.28452H203.144L201.521 16.0139H204.868Z" fill="white"/>
<path d="M90.4976 26.951H95.1636L98.7818 41.1561H98.8495V26.951H102.163V50.6812H98.3419L93.879 33.3572H93.8113V50.6812H90.4976V26.951Z" fill="white"/>
<path d="M104.663 45.0541V32.5782C104.663 28.782 106.658 26.6117 110.309 26.6117C113.96 26.6117 115.955 28.782 115.955 32.5782V45.0541C115.955 48.8517 113.96 51.0206 110.309 51.0206C106.658 51.0206 104.663 48.8503 104.663 45.0541ZM112.237 45.2916V32.3406C112.237 30.6454 111.492 30.0021 110.309 30.0021C109.126 30.0021 108.382 30.6469 108.382 32.3406V45.2916C108.382 46.9868 109.126 47.6301 110.309 47.6301C111.492 47.6301 112.237 46.9854 112.237 45.2916Z" fill="white"/>
<path d="M118.458 26.951H123.124L126.742 41.1561H126.81V26.951H130.124V50.6812H126.302L121.839 33.3572H121.772V50.6812H118.458V26.951Z" fill="white"/>
<path d="M143.78 26.951C147.5 26.951 149.324 29.0195 149.324 32.8157V35.1542C149.324 38.9518 147.498 41.0189 143.78 41.0189H142.022V50.6812H138.302V26.951H143.78ZM143.78 37.6299C144.963 37.6299 145.606 37.087 145.606 35.3917V32.5782C145.606 30.8829 144.963 30.3415 143.78 30.3415H142.022V37.6299H143.78Z" fill="white"/>
<path d="M156.864 26.951C160.718 26.951 162.375 28.748 162.375 32.4085V33.8662C162.375 36.3065 161.598 37.866 159.941 38.5446V38.6125C161.801 39.1894 162.408 40.951 162.408 43.6303V47.7998C162.408 48.9521 162.442 49.8004 162.815 50.6812H159.027C158.824 50.0704 158.689 49.6986 158.689 47.7658V43.4267C158.689 41.2225 158.046 40.5113 156.356 40.5113H155.072V50.6812H151.352V26.951H156.864ZM156.426 37.1209C157.812 37.1209 158.658 36.5101 158.658 34.6127V32.7818C158.658 31.0865 158.082 30.3415 156.764 30.3415H155.073V37.1224H156.426V37.1209Z" fill="white"/>
<path d="M164.708 45.0541V32.5782C164.708 28.782 166.704 26.6117 170.354 26.6117C174.005 26.6117 176 28.782 176 32.5782V45.0541C176 48.8517 174.005 51.0206 170.354 51.0206C166.704 51.0206 164.708 48.8503 164.708 45.0541ZM172.282 45.2916V32.3406C172.282 30.6454 171.537 30.0021 170.354 30.0021C169.171 30.0021 168.427 30.6469 168.427 32.3406V45.2916C168.427 46.9868 169.171 47.6301 170.354 47.6301C171.537 47.6301 172.282 46.9854 172.282 45.2916Z" fill="white"/>
<path d="M178.503 26.951H188.343V30.3415H182.223V36.9527H187.024V40.3431H182.223V50.6827H178.503V26.951Z" fill="white"/>
<path d="M190.133 26.951H193.853V50.6812H190.133V26.951Z" fill="white"/>
<path d="M195.644 30.34V26.9496H207.14V30.34H203.253V50.6812H199.533V30.34H195.644Z" fill="white"/>
<path d="M89.7781 66.434V58.9773C89.7781 56.7082 90.9699 55.4113 93.1536 55.4113C95.3372 55.4113 96.5291 56.7082 96.5291 58.9773V66.434C96.5291 68.7031 95.3372 70 93.1536 70C90.9699 70 89.7781 68.7031 89.7781 66.434ZM94.3042 66.5756V58.8342C94.3042 57.8206 93.8599 57.4356 93.1521 57.4356C92.4443 57.4356 91.9999 57.8206 91.9999 58.8342V66.5756C91.9999 67.5892 92.4443 67.9743 93.1521 67.9743C93.8599 67.9743 94.3042 67.5892 94.3042 66.5756Z" fill="white"/>
<path d="M98.024 55.6134H101.319C103.623 55.6134 104.613 56.6875 104.613 58.8755V59.7475C104.613 61.2067 104.148 62.1391 103.158 62.5434V62.5847C104.269 62.9284 104.634 63.9833 104.634 65.5841V68.0761C104.634 68.7651 104.654 69.2711 104.877 69.7979H102.613C102.493 69.4334 102.412 69.2107 102.412 68.0554V65.4617C102.412 64.1442 102.028 63.7192 101.017 63.7192H100.249V69.7979H98.0255V55.6134H98.024ZM101.055 61.6921C101.884 61.6921 102.388 61.3276 102.388 60.1931V59.0983C102.388 58.0847 102.045 57.6392 101.257 57.6392H100.246V61.6921H101.055Z" fill="white"/>
<path d="M106.007 66.434V58.9773C106.007 56.7082 107.138 55.4113 109.32 55.4113C111.502 55.4113 112.634 56.7082 112.634 58.9773V60.1931H110.533V58.8357C110.533 57.8221 110.088 57.437 109.381 57.437C108.673 57.437 108.228 57.8221 108.228 58.8357V66.5963C108.228 67.6099 108.673 67.9743 109.381 67.9743C110.088 67.9743 110.533 67.6099 110.533 66.5963V63.8196H109.422V61.7939H112.635V66.434C112.635 68.7031 111.504 70 109.322 70C107.14 70 106.008 68.7031 106.008 66.434H106.007Z" fill="white"/>
<path d="M115.787 55.6134H118.798L121.102 69.7979H118.879L118.474 66.9813V67.0227H115.948L115.543 69.7993H113.482L115.786 55.6149L115.787 55.6134ZM118.212 65.0973L117.222 58.0862H117.182L116.213 65.0973H118.214H118.212Z" fill="white"/>
<path d="M122.173 55.6134H124.962L127.125 64.1043H127.164V55.6134H129.145V69.7979H126.861L124.194 59.4436H124.154V69.7979H122.173V55.6134Z" fill="white"/>
<path d="M130.803 55.6134H133.027V69.7979H130.803V55.6134Z" fill="white"/>
<path d="M134.299 66.434V65.624H136.401V66.5963C136.401 67.6099 136.845 67.9743 137.553 67.9743C138.261 67.9743 138.705 67.6099 138.705 66.5564C138.705 65.3805 138.261 64.631 136.805 63.3548C134.945 61.7142 134.339 60.559 134.339 58.9375C134.339 56.7082 135.491 55.4113 137.653 55.4113C139.814 55.4113 140.886 56.7082 140.886 58.9773V59.5645H138.784V58.8357C138.784 57.8221 138.38 57.437 137.674 57.437C136.967 57.437 136.563 57.8221 136.563 58.7944C136.563 59.8272 137.028 60.5781 138.483 61.8544C140.343 63.495 140.928 64.631 140.928 66.3927C140.928 68.7031 139.756 70 137.573 70C135.391 70 134.299 68.7031 134.299 66.434Z" fill="white"/>
<path d="M143.858 55.6134H146.869L149.173 69.7979H146.949L146.545 66.9813V67.0227H144.018L143.614 69.7993H141.552L143.857 55.6149L143.858 55.6134ZM146.283 65.0973L145.293 58.0862H145.253L144.283 65.0973H146.284H146.283Z" fill="white"/>
<path d="M148.73 57.6407V55.6149H155.602V57.6407H153.278V69.7994H151.055V57.6407H148.73Z" fill="white"/>
<path d="M156.671 55.6134H158.895V69.7979H156.671V55.6134Z" fill="white"/>
<path d="M160.39 66.434V58.9773C160.39 56.7082 161.582 55.4113 163.765 55.4113C165.949 55.4113 167.141 56.7082 167.141 58.9773V66.434C167.141 68.7031 165.949 70 163.765 70C161.582 70 160.39 68.7031 160.39 66.434ZM164.916 66.5756V58.8342C164.916 57.8206 164.471 57.4356 163.764 57.4356C163.056 57.4356 162.612 57.8206 162.612 58.8342V66.5756C162.612 67.5892 163.056 67.9743 163.764 67.9743C164.471 67.9743 164.916 67.5892 164.916 66.5756Z" fill="white"/>
<path d="M168.636 55.6134H171.424L173.587 64.1043H173.627V55.6134H175.607V69.7979H173.324L170.656 59.4436H170.616V69.7979H168.636V55.6134Z" fill="white"/>
</svg>
