<?xml version="1.0" encoding="utf-8"?>
<!-- Generator: Adobe Illustrator 27.3.1, SVG Export Plug-In . SVG Version: 6.00 Build 0)  -->
<svg version="1.1" id="Layer_1" xmlns="http://www.w3.org/2000/svg" xmlns:xlink="http://www.w3.org/1999/xlink" x="0px" y="0px"
	 viewBox="0 0 1200 1200" style="enable-background:new 0 0 1200 1200;" xml:space="preserve">
<style type="text/css">
	.st0{display:none;}
	.st1{display:inline;}
	.st2{fill-rule:evenodd;clip-rule:evenodd;}
</style>
<g class="st0">
	<path class="st1" d="M600,883.5c-317.8,0-578.8-274.2-581.5-277c-3.3-3.6-3.3-9.1,0-12.8c2.7-2.8,263.8-277,581.5-277
		c317.8,0,578.8,274.2,581.5,277c3.3,3.6,3.3,9.1,0,12.8C1178.8,609.3,917.8,883.6,600,883.5L600,883.5z M39,600
		c41.6,41.3,279,264.4,561.7,264.4c282.6,0,518.8-222.9,561-264.4C1119.5,558.7,882,335.6,600,335.6S80.5,558.7,39,600L39,600z"/>
	<path class="st1" d="M600,824.5c-59.6,0-116.7-23.6-158.8-65.8c-42.1-42.1-65.8-99.2-65.8-158.8c0-59.6,23.6-116.7,65.8-158.8
		c42.1-42.1,99.2-65.8,158.8-65.8s116.7,23.6,158.8,65.8c42.1,42.1,65.8,99.2,65.8,158.8c0,59.5-23.7,116.6-65.8,158.7
		C716.6,800.8,659.5,824.5,600,824.5L600,824.5z M600,394.6c-54.5,0-106.7,21.7-145.3,60.1c-38.5,38.5-60.1,90.8-60.1,145.3
		s21.7,106.7,60.1,145.3c38.5,38.5,90.8,60.1,145.3,60.1s106.7-21.7,145.3-60.1c38.5-38.5,60.1-90.8,60.1-145.3
		c0-54.5-21.8-106.6-60.2-145.2C706.6,416.3,654.5,394.6,600,394.6L600,394.6z"/>
	<path class="st1" d="M600,706.4c-43,0-81.8-25.9-98.2-65.7s-7.4-85.5,23.1-115.9c30.4-30.4,76.1-39.5,115.9-23.1
		s65.7,55.2,65.7,98.2C706.3,658.7,658.7,706.3,600,706.4L600,706.4z M600,512.8c-35.2,0-67.1,21.2-80.5,53.8
		c-13.5,32.6-6,70.1,18.9,95s62.4,32.4,95,18.9c32.6-13.5,53.8-45.3,53.8-80.5C687,551.9,648.1,513,600,512.8z"/>
	<path class="st1" d="M600,243.5c-5.2-0.1-9.5-4.4-9.6-9.6V119.8c0-5.3,4.3-9.6,9.6-9.6s9.6,4.3,9.6,9.6v114.1v0
		C609.5,239.1,605.2,243.4,600,243.5L600,243.5z"/>
	<path class="st1" d="M815,261.8c-1.8,0-3.6-0.5-5.1-1.4c-4.2-2.8-5.5-8.4-3-12.8l65-103v0c1.2-2.4,3.4-4.1,6-4.8
		c2.6-0.7,5.3-0.3,7.6,1.1s3.8,3.7,4.4,6.3s-0.1,5.3-1.7,7.5l-65,103.2v0C821.2,260.5,818.2,262,815,261.8L815,261.8z"/>
	<path class="st1" d="M385,261.8c-3.3,0-6.3-1.7-8.1-4.5l-65-103.2v0c-2.3-4.5-0.8-9.9,3.4-12.6c4.3-2.6,9.8-1.5,12.8,2.5l65,103
		c2.4,4.4,1.1,9.9-3,12.8C388.6,261,386.9,261.7,385,261.8L385,261.8z"/>
	<path class="st1" d="M600,1089.8c-5.3,0-9.6-4.3-9.6-9.6V966.1c0-5.3,4.3-9.6,9.6-9.6s9.6,4.3,9.6,9.6v114.1v0
		C609.6,1085.5,605.3,1089.8,600,1089.8L600,1089.8z"/>
	<path class="st1" d="M879.8,1060.5c-3.3,0-6.4-1.7-8.1-4.6l-65-103c-2.4-4.4-1.1-9.9,3-12.8c4.4-2.5,10-1.2,12.8,3.1l65,103.2v0
		c2.5,4.4,1.2,10-3.1,12.8C883.1,1060,881.5,1060.5,879.8,1060.5L879.8,1060.5z"/>
	<path class="st1" d="M320.2,1060.5c-1.8,0-3.6-0.5-5.1-1.5c-4.2-2.8-5.6-8.4-3-12.8L377,943v0c2.8-4.3,8.4-5.6,12.8-3.1
		c4.2,2.8,5.5,8.4,3,12.8l-65,103C326.3,1058.6,323.3,1060.3,320.2,1060.5L320.2,1060.5z"/>
</g>
<path class="st0" d="M598.5,95.7c-6,0.8-10.5,6-10.3,12.1v140.7c0,3.1,1.2,6.2,3.4,8.4c2.2,2.2,5.2,3.5,8.3,3.5
	c3.1,0,6.2-1.3,8.4-3.5c2.2-2.2,3.4-5.3,3.4-8.4V107.8c0.1-3.4-1.3-6.8-3.8-9.1S602,95.2,598.5,95.7L598.5,95.7z M200.5,154.3
	c-4.6,0.2-8.7,3-10.4,7.3c-1.7,4.3-0.8,9.2,2.4,12.5l93.8,105.5c2.1,2.3,5,3.7,8.1,3.9c3.1,0.2,6.2-0.9,8.5-3c2.3-2.1,3.7-5,3.9-8.1
	c0.2-3.1-0.9-6.2-3-8.5L210,158.3C207.7,155.6,204.2,154.1,200.5,154.3L200.5,154.3z M997.7,154.3c-3,0.3-5.7,1.8-7.7,4l-93.8,105.6
	c-2.1,2.3-3.2,5.4-3,8.5c0.2,3.1,1.6,6.1,3.9,8.1c2.3,2.1,5.4,3.2,8.5,3c3.1-0.2,6.1-1.6,8.1-3.9l93.8-105.5
	c3.5-3.6,4.3-8.9,2.1-13.4C1007.4,156.2,1002.6,153.7,997.7,154.3L997.7,154.3z M316.7,377.5c-3.5,0.5-6.6,2.5-8.4,5.5L144.1,664.5
	c-2.8,4.8-1.9,10.9,2.2,14.7l445.7,422.2c3.8,3.5,9.5,4.1,13.9,1.5c0.8-0.4,1.5-0.9,2.2-1.5l445.7-422.2c4.1-3.7,5-9.9,2.2-14.7
	L891.7,383c-2.2-3.5-6.1-5.6-10.3-5.5H318.9C318.2,377.4,317.4,377.4,316.7,377.5L316.7,377.5z M334.7,401H578l-162.4,243L334.7,401
	z M622,401h243.4l-81,243L622,401z M600,410.1L766,659H434L600,410.1z M315.6,417.4L396.2,659H174.9L315.6,417.4z M884.4,417.4
	L1025.1,659H803.8L884.4,417.4z M184,682.4h220.6l160.9,361.4L184,682.4z M430.3,682.4h339.4L600,1064.3L430.3,682.4z M795.3,682.4
	H1016l-381.5,361.4L795.3,682.4z"/>
<g>
	<path class="st2" d="M783.7,741.3c-4.2,0-8.3-2.3-10.4-6.2l-89.8-168.9h-19.6c-3.9,0-7.6-1.9-9.8-5.2l-47-70.5
		c-3.6-5.4-2.1-12.7,3.2-16.3c5.4-3.6,12.7-2.1,16.3,3.2l43.5,65.3h20.4c4.4,0,8.4,2.4,10.4,6.2l93.1,175.2
		c3.1,5.8,0.9,12.9-4.9,15.9C787.5,740.8,785.6,741.2,783.7,741.3L783.7,741.3z"/>
	<path class="st2" d="M232.3,862.6c-2.5,0-4.9-0.8-7.1-2.4c-5.2-3.9-6.2-11.3-2.4-16.5l50.7-67.6c3.2-4.2,8.8-5.8,13.7-3.9
		l50.4,19.7L444,612.7c3.3-5.6,10.5-7.4,16.1-4.1c5.6,3.3,7.4,10.5,4.1,16.1L352.9,812.6c-2.9,4.9-9.1,7.1-14.4,4.9l-51.4-20.1
		l-45.4,60.4C239.4,861,235.9,862.6,232.3,862.6L232.3,862.6z"/>
	<path class="st2" d="M46.6,975.8c-4.4,0-8.6-2.5-10.6-6.7c-2.8-5.8-0.4-12.9,5.5-15.7c25.5-12.4,49.8-23.3,73-32.9l145.2-193.4
		c3.2-4.2,8.8-5.8,13.7-3.9l47,18.4l112.5-189.8c1.8-2.9,4.7-4.9,8-5.6c3.4-0.6,6.8,0.2,9.5,2.4l39,31.2l117.8-175.5
		c2.2-3.2,5.8-5.2,9.8-5.2s7.6,2,9.8,5.2l65.1,97.7h23.1c4.4,0,8.4,2.4,10.4,6.2l77.1,145.1l43-29.3c5.1-3.4,11.8-2.5,15.7,2.2
		l241.3,293.8c33.5-13.5,40.1-29.2,40.2-29.6l-0.1,0.4l22.6,6.6c-0.9,3.2-10.1,29.4-62.1,47.7c-0.2,0.1-0.5,0.2-0.7,0.2
		c-6,2.1-12.7,4.1-19.9,5.9c-89.2,22.6-231.9,13.1-424.2-28.2c-234.2-50.2-357.9-69-606.6,51.5C50,975.5,48.3,975.8,46.6,975.8
		L46.6,975.8z M388.4,861c84.9,0,169.8,16.5,274.9,39.1c232.3,49.8,353.1,44.2,415.3,27.9L849.9,649.6l-45,30.7
		c-2.8,1.9-6.2,2.5-9.5,1.7c-3.2-0.8-6-2.9-7.6-5.9l-79.9-150.5h-22.3c-3.9,0-7.6-1.9-9.8-5.2L617,432.1L501.9,603.7
		c-1.8,2.7-4.7,4.6-8,5.1c-3.2,0.5-6.6-0.4-9.1-2.5l-38.4-30.8L335.6,762.2c-2.9,4.9-9.1,7.1-14.4,4.9l-48-18.8l-117.1,156
		C242.2,873.2,315.4,861,388.4,861L388.4,861z"/>
	<path class="st2" d="M578.4,811.4c-4.6,0-9-2.7-10.8-7.2l-86.4-202.6c-2.5-6,0.2-12.9,6.2-15.4c6-2.5,12.9,0.2,15.4,6.2l86.4,202.6
		c2.5,6-0.2,12.9-6.2,15.4C581.4,811.1,579.9,811.4,578.4,811.4L578.4,811.4z"/>
	<path class="st2" d="M886.9,852.5c-4.2,0-8.4-2.3-10.4-6.4L787.8,676c-3-5.8-0.8-12.9,5-15.9c5.8-3,12.9-0.8,15.9,5l88.7,170.2
		c3,5.8,0.8,12.9-5,15.9C890.6,852.1,888.8,852.5,886.9,852.5L886.9,852.5z"/>
	<path class="st2" d="M617,422.7c-6.5,0-11.8-5.3-11.8-11.8v-175c0-6.5,5.3-11.8,11.8-11.8s11.8,5.3,11.8,11.8v175
		C628.7,417.4,623.4,422.7,617,422.7z"/>
	<path class="st2" d="M762.6,358.2H616.9c-6.5,0-11.8-5.3-11.8-11.8s5.3-11.8,11.8-11.8h133.8v-86.9H616.9
		c-6.5,0-11.8-5.3-11.8-11.8c0-6.5,5.3-11.8,11.8-11.8h145.6c6.5,0,11.8,5.3,11.8,11.8v110.5C774.4,352.9,769.1,358.2,762.6,358.2z"
		/>
</g>
</svg>
