<?xml version="1.0" encoding="UTF-8"?>
<svg width="1200pt" height="1200pt" version="1.1" viewBox="0 0 1200 1200" xmlns="http://www.w3.org/2000/svg">
 <path d="m345.28 372.1 224.39-234.89h-309.28zm254.72-229.03-229.36 240.14h457.22zm358.22-31.969c4.5 0 8.3906 2.25 10.641 5.7188l228.14 271.03c4.0312 4.7812 4.0312 11.859 0 16.641l-586.97 700.97c-3.2812 3.8906-8.3906 5.3906-13.031 4.2188-4.7812 1.2188-9.8906-0.28125-13.219-4.3594l-580.97-700.78h0.14063c-3.8906-4.7812-4.0312-11.859 0-16.641l228.14-271.03c2.25-3.4688 6.2812-5.7188 10.641-5.7188h716.39zm-18.609 26.109h-309.28l222.74 234.89zm-62.859 246h282.47l-196.5-233.53zm282.47 25.969h-292.03l-229.22 622.36zm-319.78 0h-480.61l238.22 658.5zm-508.22 0h-290.53l515.53 622.22zm-290.39-25.969h280.97l-84.469-233.53z"/>
</svg>
