<?xml version="1.0" encoding="UTF-8"?>
<svg width="1200pt" height="1200pt" version="1.1" viewBox="0 0 1200 1200" xmlns="http://www.w3.org/2000/svg">
 <path d="m1016.9 666.69c-17.609-14.449-46.188-19.578-67.336 3.2578l-101.46 109.59c-5.5117-30.051-31.887-52.887-63.504-52.887h-173.63l-19.324-11.156c-22.406-12.941-44.902-18.969-70.789-18.969h-72.734c-38.242 0-71.891 13.91-100 41.363l-92.512 90.332-22.762-22.762c-5.0312-5.043-13.211-5.043-18.258 0l-75.957 75.957c-2.4258 2.4258-3.7852 5.707-3.7852 9.1211 0 3.418 1.3594 6.7109 3.7852 9.1211l238.65 238.65c2.5234 2.5234 5.8164 3.7852 9.1211 3.7852s6.6133-1.2617 9.1211-3.7852l75.957-75.957c2.4258-2.4258 3.7852-5.707 3.7852-9.1211 0-3.418-1.3594-6.7109-3.7852-9.1211l-23.266-23.266 12.586-14.461c12.023-13.812 27.402-20.816 45.723-20.816h262.96c48.551 0 91.727-22.664 121.58-63.832l135.92-187.42c17.707-24.418 8.3125-52.508-10.113-67.629zm-630.49 444.26-220.39-220.39 57.699-57.699 220.39 220.39zm619.69-391.78-135.92 187.42c-25.223 34.789-60.035 53.168-100.68 53.168h-262.96c-25.738 0-48.281 10.262-65.191 29.68l-11.426 13.113-156.07-156.07 92.289-90.109c23.449-22.887 50.254-34.016 81.969-34.016h72.734c21.453 0 39.305 4.7891 57.883 15.516l22.309 12.883c1.9609 1.125 4.1875 1.7266 6.4531 1.7266h177.1c21.355 0 38.742 17.375 38.742 38.742 0 9.4883-3.5156 18.637-9.8945 25.762-7.3828 8.2539-17.891 12.98-28.848 12.98h-150.98c-7.125 0-12.906 5.7812-12.906 12.906s5.7812 12.906 12.906 12.906h150.98c18.195 0 35.633-7.8008 47.902-21.391 0 0 0.023438-0.023437 0.035156-0.035156l135.97-146.87c10.531-11.375 23.828-7.5664 32.02-0.84375 8.4375 6.918 14.965 19.594 5.582 32.523zm-320.72-581.71v-66.66c0-7.125 5.7812-12.906 12.906-12.906s12.906 5.7812 12.906 12.906v66.66c0 7.125-5.7812 12.906-12.906 12.906s-12.906-5.7812-12.906-12.906zm-202.58-5.4609c-3.5625-6.1719-1.4453-14.07 4.7266-17.633 6.1719-3.5625 14.07-1.4453 17.633 4.7266l33.332 57.723c3.5625 6.1719 1.4453 14.07-4.7266 17.633-2.0312 1.1758-4.25 1.7266-6.4414 1.7266-4.457 0-8.8047-2.3125-11.191-6.4531zm-149.56 136.65c3.5625-6.1719 11.461-8.2891 17.633-4.7266l57.723 33.332c6.1719 3.5625 8.2891 11.461 4.7266 17.633-2.3867 4.1406-6.7344 6.4531-11.191 6.4531-2.1914 0-4.4062-0.5625-6.4414-1.7266l-57.723-33.332c-6.1719-3.5625-8.2891-11.461-4.7266-17.633zm524.84-91.836 33.332-57.723c3.5625-6.1719 11.449-8.2891 17.633-4.7266 6.1719 3.5625 8.2891 11.461 4.7266 17.633l-33.332 57.723c-2.3867 4.1406-6.7344 6.4531-11.191 6.4531-2.1914 0-4.4062-0.5625-6.4414-1.7266-6.1719-3.5625-8.2891-11.461-4.7266-17.633zm200.52 109.46-57.723 33.332c-2.0312 1.1758-4.25 1.7266-6.4414 1.7266-4.457 0-8.8047-2.3125-11.191-6.4531-3.5625-6.1719-1.4453-14.07 4.7266-17.633l57.723-33.332c6.1719-3.5625 14.07-1.4453 17.633 4.7266s1.4453 14.07-4.7266 17.633zm-643.64 180.22c7.125 0 12.906 5.7812 12.906 12.906s-5.7812 12.906-12.906 12.906h-66.66c-7.125 0-12.906-5.7812-12.906-12.906s5.7812-12.906 12.906-12.906zm646.21 12.906c0 7.125-5.7812 12.906-12.906 12.906h-66.66c-7.125 0-12.906-5.7812-12.906-12.906s5.7812-12.906 12.906-12.906h66.66c7.125 0 12.906 5.7812 12.906 12.906zm-575.82-112.55c0 105.36 103.61 208.96 203.8 309.15 2.5234 2.5234 5.8281 3.7852 9.1211 3.7852s6.6133-1.2617 9.1211-3.7852c100.19-100.19 203.79-203.79 203.79-309.15 0-62.266-50.656-112.91-112.91-112.91-49.641 0-77.609 23.645-100 60.941-22.395-37.297-50.363-60.941-100-60.941-62.266 0-112.91 50.656-112.91 112.91zm112.91-87.098c40.777 0 63.086 17.129 88.469 67.875 2.1797 4.3711 6.6602 7.1406 11.547 7.1406s9.3555-2.7656 11.547-7.1406c25.371-50.742 47.695-67.875 88.469-67.875 48.023 0 87.098 39.074 87.098 87.098 0 91.691-93.574 188.14-187.1 281.77-93.539-93.625-187.11-190.09-187.11-281.77 0-48.023 39.074-87.098 87.098-87.098z"/>
</svg>
