<?xml version="1.0" encoding="UTF-8"?>
<svg width="1200pt" height="1200pt" version="1.1" viewBox="0 0 1200 1200" xmlns="http://www.w3.org/2000/svg">
 <path d="m599.06 274.81c-3.8945 0.48828-6.7656 3.8711-6.6133 7.793v90.688c-0.03125 2.0195 0.75391 3.9727 2.1758 5.4102 1.418 1.4414 3.3594 2.2539 5.3789 2.2539 2.0234 0 3.9648-0.8125 5.3828-2.2539 1.4219-1.4375 2.2031-3.3906 2.1758-5.4102v-90.688c0.085937-2.2188-0.80859-4.3672-2.4453-5.8672s-3.8516-2.207-6.0547-1.9258zm-256.47 37.785c-2.9648 0.11328-5.5898 1.9531-6.7109 4.6992-1.1172 2.75-0.52734 5.8984 1.5156 8.0547l60.457 68.012c1.3477 1.5039 3.2344 2.4141 5.25 2.5234 2.0156 0.10938 3.9922-0.58203 5.4961-1.9297s2.4102-3.2344 2.5234-5.25c0.10937-2.0156-0.58594-3.9922-1.9336-5.4961l-60.457-68.016c-1.5352-1.7695-3.8008-2.7305-6.1406-2.5977zm513.65 0c-1.9219 0.19922-3.6992 1.1289-4.957 2.5977l-60.457 68.016c-1.3477 1.5039-2.043 3.4805-1.9336 5.4961 0.11328 2.0156 1.0195 3.9023 2.5234 5.25 1.5 1.3477 3.4805 2.0391 5.4961 1.9297 2.0156-0.10937 3.9023-1.0195 5.25-2.5234l60.457-68.012c2.2266-2.3047 2.7617-5.7656 1.3242-8.6328-1.4336-2.8711-4.5195-4.5195-7.7031-4.1211zm-438.79 143.82c-2.25 0.30469-4.2461 1.6055-5.4297 3.543l-105.8 181.37c-1.832 3.0859-1.2383 7.0352 1.4141 9.4492l287.17 272.05c2.457 2.2617 6.1055 2.6484 8.9766 0.94531 0.50391-0.26172 0.98047-0.57812 1.4141-0.94531l287.17-272.05c2.6562-2.4141 3.2461-6.3633 1.418-9.4492l-105.8-181.37c-1.4219-2.2656-3.9336-3.6133-6.6094-3.543h-362.51c-0.47266-0.042968-0.94531-0.042968-1.418 0zm11.57 15.117h156.81l-104.62 156.57zm185.15 0h156.81l-52.191 156.57zm-14.172 5.9023 106.98 160.36h-213.96zm-183.26 4.7227 51.953 155.63h-142.64zm366.52 0 90.688 155.63h-142.64zm-451.3 170.75h142.17l103.67 232.86zm158.7 0h218.68l-109.34 246.08zm235.21 0h142.17l-245.84 232.86z"/>
</svg>
