<?xml version="1.0" encoding="UTF-8"?>
<svg width="1200pt" height="1200pt" version="1.1" viewBox="0 0 1200 1200" xmlns="http://www.w3.org/2000/svg">
 <g fill-rule="evenodd">
  <path d="m630 420c-29.812 0-54-24.188-54-54 0-17.953 8.7656-33.844 22.219-43.641-14.016-6.6562-29.672-10.359-46.219-10.359-59.625 0-108 48.375-108 108s48.375 108 108 108c53.297 0 97.547-38.578 106.41-89.344 1.5469-8.9062 1.9688-18.375 1.2188-27.516-8.4844 5.5781-18.656 8.8594-29.625 8.8594zm2.5312 23.953c-10.312 34.734-42.469 60.047-80.531 60.047-46.406 0-84-37.594-84-84 0-48.094 42.047-87.094 89.906-83.812-20.859 50.438 19.031 109.55 74.625 107.77z"/>
  <path d="m552 240c120.79 0 225.32 73.266 276 180-14.578 30.703-33.609 58.641-56.203 82.828l22.688 22.688c4.6875 4.6875 4.6875 12.281 0 16.969s-12.281 4.6875-16.969 0l-22.734-22.734c-20.062 18.516-42.469 34.312-66.609 46.875l17.812 26.719c3.6562 5.5312 2.2031 12.984-3.3281 16.641s-12.984 2.2031-16.641-3.3281l-19.781-29.719c-31.828 13.406-66.234 21.375-102.23 22.828v24.234c0 6.6094-5.3906 12-12 12s-12-5.3906-12-12v-24.234c-36-1.4531-70.406-9.4219-102.23-22.828l-19.781 29.719c-3.6562 5.5312-11.109 6.9844-16.641 3.3281s-6.9844-11.109-3.3281-16.641l17.812-26.719c-24.141-12.562-46.547-28.359-66.609-46.875l-22.734 22.734c-4.6875 4.6875-12.281 4.6875-16.969 0s-4.6875-12.281 0-16.969l22.688-22.688c-22.594-24.188-41.625-52.125-56.203-82.828 50.672-106.73 155.21-180 276-180zm0 336c-106.78 0-200.48-62.484-249.19-156 48.703-93.516 142.4-156 249.19-156s200.48 62.484 249.19 156c-48.703 93.516-142.4 156-249.19 156z"/>
  <path d="m264.74 893.53c6.5625 4.6406 10.547 12 10.547 19.922v214.55h491.86v-118.69c0-13.266 11.016-24 24.562-24h137.95c54.234 0 98.203-42.984 98.203-96v-193.31c0-13.266 10.969-24 24.516-24h38.719c27.703 0 45.469-28.734 32.625-52.688l-64.312-120.05c-16.922-31.547-28.359-65.484-39.75-99.328-1.1719-3.5625-2.3906-7.0781-3.5625-10.594-62.391-184.08-245.02-317.34-460.6-317.34-267.05 0-483.52 204.47-483.52 456.66 0 149.11 75.703 281.53 192.74 364.87zm-168.74-364.87c0 140.68 71.344 266.11 182.68 345.32 12.469 8.8594 20.625 23.297 20.625 39.469v190.55h443.86v-94.688c0-9.375 2.6719-18 7.2656-25.312h-30.422c-79.547 0-144-64.453-144-144v-24c0-6.6094 5.3906-12 12-12s12 5.3906 12 12v24c0 66.281 53.719 120 120 120 69.844 0 139.08 1.3125 209.68 1.3125 41.484 0 74.203-32.766 74.203-72v-193.31c0-27 22.219-48 48.516-48h38.719c10.5 0 15.328-10.172 11.484-17.391l-64.359-120c-17.906-33.422-29.953-69.328-41.25-102.89-1.2188-3.6094-2.4375-7.1719-3.6094-10.688-58.922-173.9-232.13-301.03-437.86-301.03-255.1 0-459.52 195-459.52 432.66z"/>
 </g>
</svg>
