<?xml version="1.0" encoding="UTF-8"?>
<svg width="1200pt" height="1200pt" version="1.1" viewBox="0 0 1200 1200" xmlns="http://www.w3.org/2000/svg">
 <g>
  <path d="m1070.4 638.82c-6.457-13.164-13.586-26.281-21.254-39.359 72.07-123.61 87.887-246.21 29.52-330.57-43.598-63.023-124.4-97.738-227.52-97.738-9.0469 0-18.227 0.30078-27.48 0.81641-58.883-95.512-137.43-153.96-223.62-153.96s-164.73 58.453-223.62 153.96c-9.2656-0.50391-18.445-0.81641-27.492-0.81641-103.12 0-183.93 34.715-227.52 97.738-58.355 84.371-42.527 206.96 29.52 330.57-7.6562 13.066-14.785 26.195-21.254 39.359-56.316 114.79-59.258 218.61-8.2695 292.29 43.598 63.023 124.4 97.738 227.51 97.754h0.023437c9.0352 0 18.215-0.30078 27.469-0.80469 58.902 95.496 137.45 153.95 223.64 153.95s164.73-58.453 223.63-153.96c9.2539 0.51563 18.434 0.81641 27.48 0.81641 103.12 0 183.91-34.727 227.51-97.754 50.988-73.676 48.059-177.48-8.2695-292.28zm-219.24-443.68c95.004 0 168.79 31.031 207.78 87.395 51.648 74.664 38.641 182.95-23.629 294.31-31.789-49.547-71.891-97.906-118.64-143.27-15.371-90.539-42.938-171.85-79.344-238.07 4.6172-0.14453 9.2734-0.37109 13.836-0.37109zm-425.47 656.9c-44.027-30.469-84.168-63.395-120.1-97.703-7.7656-49.055-12.012-100.8-12.012-154.34 0-53.566 4.2461-105.34 12.023-154.41 36.289-34.633 76.512-67.488 120.09-97.621 56.594-39.156 115.59-71.449 174.36-96.203 58.766 24.758 117.76 57.035 174.35 96.203 43.57 30.133 83.797 62.988 120.1 97.633 7.7656 49.066 12.023 100.84 12.023 154.4 0 53.543-4.2461 105.29-12.023 154.34-35.914 34.297-76.055 67.234-120.1 97.703-56.59 39.156-115.58 71.438-174.35 96.191-58.766-24.754-117.76-57.035-174.36-96.191zm143.05 108.67c-61.895 23.23-122.99 37.715-180.29 42.348-33.348-58.055-59.566-129.54-75.887-209.77 30.574 27.422 63.758 53.773 99.48 78.492 50.867 35.188 103.71 64.973 156.7 88.934zm-291.2-234.25c-39.457-41.113-72.672-83.762-98.977-126.28 26.711-43.441 60.035-86.09 98.977-126.66-5.1484 40.754-7.957 83.027-7.957 126.48s2.7969 85.715 7.957 126.46zm35.062-319.96c16.332-80.148 42.527-151.57 75.84-209.58 57.312 4.6562 118.4 19.129 180.29 42.348-52.992 23.977-105.83 53.746-156.7 88.945-35.375 24.477-68.594 50.758-99.434 78.285zm318.76-167.23c61.895-23.23 122.98-37.703 180.29-42.348 33.312 58.008 59.52 129.43 75.84 209.58-30.84-27.539-64.055-53.809-99.434-78.277-50.855-35.207-103.7-64.977-156.7-88.953zm156.71 632.5c35.723-24.719 68.891-51.07 99.469-78.48-16.32 80.23-42.539 151.71-75.887 209.76-57.301-4.6562-118.38-19.129-180.28-42.348 52.98-23.953 105.83-53.738 156.7-88.934zm134.51-398.26c38.93 40.57 72.254 83.219 98.965 126.66-26.293 42.516-59.508 85.176-98.965 126.29 5.1484-40.754 7.9453-83.027 7.9453-126.47s-2.7969-85.727-7.9453-126.48zm-322.52-431.52c75.266 0 144.25 49.754 197.65 132.02-63.109 6.5273-130.22 24.277-197.65 51.77-67.441-27.504-134.54-45.238-197.65-51.77 53.398-82.27 122.39-132.02 197.65-132.02zm-458.9 240.54c38.988-56.352 112.78-87.395 207.78-87.395 4.5586 0 9.2148 0.22656 13.836 0.35938-36.406 66.227-63.984 147.53-79.344 238.08-46.754 45.371-86.844 93.719-118.63 143.27-62.27-111.37-75.277-219.65-23.641-294.31zm207.81 722.32h-0.023437c-95.004-0.011719-168.79-31.055-207.78-87.406-45.816-66.215-42.238-161.41 10.078-268.05 4.3555-8.8789 9.1094-17.734 14.039-26.578 31.164 48.707 70.895 97.176 118.07 143.2 15.359 90.719 42.961 172.18 79.43 238.49-4.6016 0.14062-9.2461 0.35547-13.809 0.35547zm251.09 153.14c-75.266 0-144.25-49.754-197.65-132.02 63.109-6.5273 130.21-24.266 197.65-51.77 67.441 27.492 134.54 45.254 197.64 51.77-53.387 82.27-122.38 132.02-197.64 132.02zm458.88-240.55c-38.988 56.363-112.77 87.406-207.77 87.406-4.5586 0-9.2148-0.22656-13.824-0.35938 36.457-66.312 64.055-147.77 79.414-238.48 47.184-46.02 86.914-94.5 118.08-143.21 4.9336 8.8438 9.6836 17.699 14.039 26.578 52.316 106.64 55.891 201.85 10.062 268.06z"/>
  <path d="m600 488.46c-104-52.98-143.51-33.266-158.15-6.8867-37.402 67.355 60.18 228.12 152.06 282.17 0.035157 0.023437 0.070313 0.023437 0.10938 0.046874 0.61328 0.34766 1.2852 0.57422 1.9453 0.81641 0.32422 0.12109 0.64844 0.30078 0.98438 0.38281 0.625 0.16797 1.2734 0.19141 1.9062 0.25391 0.37109 0.035156 0.75781 0.15625 1.1289 0.15625h0.011719 0.011719c0.37109 0 0.75781-0.12109 1.1289-0.15625 0.63672-0.058594 1.2852-0.085938 1.9062-0.25391 0.33594-0.085937 0.64844-0.26562 0.98438-0.38281 0.66016-0.25391 1.332-0.46875 1.9453-0.81641 0.035157-0.023437 0.070313-0.023437 0.10938-0.046874 91.895-54.047 189.47-214.81 152.07-282.17-14.652-26.367-54.145-46.082-158.16 6.8867zm0 250.59c-89.016-56.832-162.3-200.55-137.17-245.83 13.547-24.434 61.512-17.375 131.61 19.285 0.33594 0.16797 0.69531 0.15625 1.0312 0.30078 0.75781 0.3125 1.5 0.50391 2.2812 0.66016 0.75781 0.14453 1.4883 0.25391 2.2422 0.25391 0.75781 0 1.4883-0.10938 2.2422-0.25391 0.79297-0.15625 1.5352-0.34766 2.2812-0.66016 0.33594-0.14453 0.70703-0.12109 1.0312-0.30078 70.078-36.66 118.04-43.703 131.61-19.285 25.152 45.277-48.133 189-137.15 245.83z"/>
 </g>
</svg>
