<?xml version="1.0" encoding="UTF-8"?>
<svg width="1200pt" height="1200pt" version="1.1" viewBox="0 0 1200 1200" xmlns="http://www.w3.org/2000/svg">
 <g>
  <path d="m600 883.55c-317.76 0-578.81-274.22-581.48-277.03-3.3281-3.6094-3.3281-9.1406 0-12.75 2.6719-2.8125 263.76-277.03 581.48-277.03 317.76 0 578.81 274.22 581.48 277.03 3.3281 3.6094 3.3281 9.1406 0 12.75-2.6719 2.8125-263.72 277.03-581.48 277.03zm-561.05-283.55c41.625 41.344 279.05 264.37 561.71 264.37 282.61 0 518.81-222.89 561.05-264.37-42.234-41.344-279.71-264.37-561.71-264.37s-519.47 223.03-561.05 264.37z"/>
  <path d="m600 824.53c-59.578 0-116.67-23.625-158.76-65.766-42.141-42.094-65.766-99.188-65.766-158.76 0-59.574 23.625-116.67 65.766-158.76 42.094-42.141 99.188-65.766 158.76-65.766s116.67 23.625 158.76 65.766c42.141 42.094 65.766 99.188 65.766 158.76-0.046875 59.531-23.719 116.62-65.812 158.72-42.094 42.094-99.188 65.766-158.72 65.812zm0-429.94c-54.469 0-106.73 21.656-145.26 60.141-38.484 38.531-60.141 90.797-60.141 145.26s21.656 106.73 60.141 145.26c38.531 38.484 90.797 60.141 145.26 60.141s106.73-21.656 145.26-60.141c38.484-38.531 60.141-90.797 60.141-145.26-0.046875-54.469-21.75-106.64-60.234-145.18-38.531-38.484-90.703-60.188-145.18-60.234z"/>
  <path d="m600 706.36c-43.031 0-81.797-25.922-98.25-65.672s-7.3594-85.453 23.062-115.88 76.125-39.516 115.88-23.062 65.672 55.219 65.672 98.25c-0.09375 58.688-47.672 106.27-106.36 106.36zm0-193.55c-35.25 0-67.078 21.234-80.531 53.812-13.5 32.578-6.0469 70.078 18.891 95.016s62.438 32.391 95.016 18.891c32.578-13.453 53.812-45.281 53.812-80.531-0.14062-48.094-39.094-87.047-87.188-87.188z"/>
  <path d="m600 243.47c-5.25-0.09375-9.5156-4.3594-9.5625-9.6094v-114.09c0-5.2969 4.2656-9.6094 9.5625-9.6094s9.5625 4.3125 9.5625 9.6094v114.14-0.046875c-0.046875 5.25-4.3125 9.5156-9.5625 9.6094z"/>
  <path d="m814.97 261.84c-1.7812-0.046875-3.5625-0.51562-5.1094-1.4062-4.1719-2.8125-5.4844-8.3906-3.0469-12.797l64.969-103.03v0.046875c1.2188-2.3906 3.4219-4.125 5.9531-4.8281 2.5781-0.70312 5.3438-0.28125 7.5938 1.125s3.8438 3.6562 4.3594 6.2812-0.09375 5.3438-1.6875 7.5l-64.969 103.17v-0.046875c-1.8281 2.625-4.875 4.125-8.0625 3.9844z"/>
  <path d="m385.03 261.84c-3.2812 0-6.3281-1.6875-8.0625-4.5l-64.969-103.17v0.046875c-2.2969-4.4531-0.79688-9.9375 3.4219-12.562 4.2656-2.625 9.8438-1.5469 12.797 2.4844l64.969 103.03c2.4375 4.3594 1.125 9.9375-3.0469 12.75-1.5 1.0781-3.2812 1.7344-5.1094 1.9219z"/>
  <path d="m600 1089.8c-5.2969 0-9.5625-4.3125-9.5625-9.6094v-114.09c0-5.2969 4.2656-9.6094 9.5625-9.6094s9.5625 4.3125 9.5625 9.6094v114.14-0.046875c0 5.2969-4.2656 9.6094-9.5625 9.6094z"/>
  <path d="m879.84 1060.5c-3.3281 0-6.375-1.7344-8.0625-4.5938l-64.969-103.03c-2.4375-4.3594-1.125-9.9375 3.0469-12.75 4.4062-2.5312 9.9844-1.1719 12.797 3.0938l64.969 103.17v-0.046875c2.5312 4.4062 1.1719 9.9844-3.0938 12.75-1.4062 0.89062-3.0469 1.4062-4.6875 1.4062z"/>
  <path d="m320.16 1060.5c-1.7812 0-3.5625-0.51562-5.1094-1.5-4.2188-2.8125-5.5781-8.3906-3.0469-12.797l64.969-103.17v0.046875c2.7656-4.2656 8.3906-5.5781 12.797-3.0938 4.1719 2.8125 5.4844 8.3906 3.0469 12.797l-64.969 103.03c-1.5938 2.7656-4.5 4.5-7.6875 4.6875z"/>
 </g>
</svg>
