<?xml version="1.0" encoding="UTF-8"?>
<svg width="1200pt" height="1200pt" version="1.1" viewBox="0 0 1200 1200" xmlns="http://www.w3.org/2000/svg">
 <g fill-rule="evenodd">
  <path d="m746.16 712.4c-3.375 0-6.6094-1.8281-8.2969-4.9688l-71.438-134.44h-15.609c-3.1406 0-6.0469-1.5469-7.7812-4.1719l-37.406-56.109c-2.8594-4.3125-1.6875-10.125 2.5781-12.984 4.3125-2.8594 10.125-1.6875 12.984 2.5781l34.641 51.938h16.266c3.4688 0 6.6562 1.9219 8.2969 4.9688l74.062 139.4c2.4375 4.5938 0.70312 10.266-3.8906 12.656-1.4062 0.75-2.9062 1.125-4.4062 1.125z"/>
  <path d="m307.36 808.92c-1.9688 0-3.9375-0.60938-5.625-1.875-4.125-3.0938-4.9688-9-1.875-13.125l40.359-53.766c2.5312-3.375 6.9844-4.6406 10.922-3.0938l40.125 15.703 84.562-142.69c2.625-4.4531 8.3906-5.9062 12.844-3.2812s5.9062 8.3906 3.2812 12.844l-88.641 149.53c-2.3438 3.9375-7.2188 5.625-11.484 3.9375l-40.875-15.984-36.094 48.094c-1.8281 2.4375-4.6406 3.75-7.5 3.75z"/>
  <path d="m159.56 899.06c-3.4688 0-6.8438-1.9688-8.4375-5.2969-2.25-4.6406-0.32812-10.266 4.3594-12.516 20.297-9.8438 39.609-18.516 58.125-26.156l115.55-153.89c2.5312-3.375 6.9844-4.6406 10.922-3.0938l37.406 14.625 89.484-151.03c1.4062-2.3438 3.7031-3.9375 6.375-4.4531 2.6719-0.46875 5.4375 0.1875 7.5469 1.9219l31.031 24.844 93.75-139.69c1.7344-2.5781 4.6406-4.1719 7.7812-4.1719s6.0469 1.5938 7.7812 4.1719l51.797 77.719h18.375c3.4688 0 6.6562 1.9219 8.2969 4.9688l61.359 115.5 34.219-23.344c4.0312-2.7188 9.4219-1.9688 12.516 1.7812l192.05 233.76c26.672-10.734 31.875-23.203 31.969-23.531l-0.09375 0.28125 18 5.25c-0.75 2.5781-8.0156 23.391-49.453 37.922-0.1875 0.09375-0.375 0.14062-0.5625 0.1875-4.7812 1.6406-10.078 3.2344-15.797 4.6875-70.969 17.953-184.55 10.406-337.55-22.406-186.37-39.984-284.76-54.938-482.72 41.016-1.3125 0.65625-2.7188 0.9375-4.0781 0.9375zm272.02-91.359c67.547 0 135.1 13.125 218.72 31.078 184.87 39.656 280.97 35.156 330.47 22.172l-181.97-221.48-35.812 24.422c-2.2031 1.5-4.9219 1.9688-7.5469 1.3594-2.5781-0.65625-4.7812-2.3438-6.0469-4.6875l-63.609-119.77h-17.766c-3.1406 0-6.0469-1.5469-7.7812-4.1719l-46.781-70.219-91.594 136.5c-1.4531 2.1562-3.75 3.6562-6.375 4.0312-2.5781 0.42188-5.25-0.32812-7.2656-1.9688l-30.562-24.469-88.078 148.6c-2.3438 3.9375-7.2188 5.625-11.484 3.9375l-38.203-14.953-93.188 124.13c68.531-24.797 126.74-34.547 184.92-34.547z"/>
  <path d="m582.74 768.24c-3.6562 0-7.125-2.1562-8.625-5.7188l-68.719-161.21c-2.0156-4.7812 0.1875-10.266 4.9688-12.281s10.266 0.1875 12.281 4.9688l68.719 161.21c2.0156 4.7812-0.1875 10.266-4.9688 12.281-1.2188 0.51562-2.4375 0.75-3.6562 0.75z"/>
  <path d="m828.24 800.95c-3.375 0-6.6562-1.8281-8.2969-5.0625l-70.547-135.42c-2.3906-4.5938-0.60938-10.266 3.9844-12.656s10.266-0.60938 12.656 3.9844l70.547 135.42c2.3906 4.5938 0.60938 10.266-3.9844 12.656-1.4062 0.70312-2.8594 1.0781-4.3125 1.0781z"/>
  <path d="m613.45 458.9c-5.1562 0-9.375-4.2188-9.375-9.375v-139.22c0-5.1562 4.2188-9.375 9.375-9.375s9.375 4.2188 9.375 9.375v139.22c0 5.1562-4.2188 9.375-9.375 9.375z"/>
  <path d="m729.32 407.58h-115.88c-5.1562 0-9.375-4.2188-9.375-9.375s4.2188-9.375 9.375-9.375h106.5v-69.141h-106.5c-5.1562 0-9.375-4.2188-9.375-9.375s4.2188-9.375 9.375-9.375h115.88c5.1562 0 9.375 4.2188 9.375 9.375v87.891c0 5.1562-4.2188 9.375-9.375 9.375z"/>
 </g>
</svg>
