<svg width="140" height="47" viewBox="0 0 140 47" fill="none" xmlns="http://www.w3.org/2000/svg">
<path d="M0 43.7072H18.311V0H0V43.7072Z" fill="#FDCE00"/>
<path d="M16.4876 19.5118C16.4876 8.7361 25.1845 0 35.912 0V39.0237C25.1845 39.0237 16.4876 30.2876 16.4876 19.5118Z" fill="#6348FF"/>
<path d="M43.2884 32.5462C50.4548 32.5462 56.2643 26.7105 56.2643 19.5118C56.2643 12.3132 50.4548 6.47753 43.2884 6.47753C36.122 6.47753 30.3125 12.3132 30.3125 19.5118C30.3125 26.7105 36.122 32.5462 43.2884 32.5462Z" fill="#FF452B"/>
<path d="M60.4219 0.09906H64.0924C66.5854 0.09906 67.8083 1.48788 67.8083 4.03669V5.60679C67.8083 8.1566 66.5844 9.54443 64.0924 9.54443H62.914V16.0319H60.4209L60.4219 0.09906ZM64.0924 7.26902C64.8853 7.26902 65.3162 6.90448 65.3162 5.76628V3.87721C65.3162 2.73901 64.8853 2.37546 64.0924 2.37546H62.914V7.26902H64.0924Z" fill="#FF452B"/>
<path d="M69.1682 0.09906H71.6612V6.5865H74.3347V0.09906H76.8277V16.0319H74.3347V8.86191H71.6612V16.0319H69.1682V0.09906Z" fill="#FF452B"/>
<path d="M78.5939 12.2537V0.09906H81.0869V12.436C81.0869 13.5742 81.5632 13.9843 82.3561 13.9843C83.1489 13.9843 83.6253 13.5742 83.6253 12.436V0.09906H86.0275V12.2537C86.0275 14.8035 84.7584 16.2597 82.3117 16.2597C79.865 16.2597 78.5958 14.8025 78.5958 12.2537H78.5939Z" fill="#FF452B"/>
<path d="M87.7937 0.09906H91.3518L92.9376 11.5028H92.9829L94.5687 0.09906H98.1267V16.0319H95.7698V3.96834H95.7244L93.9119 16.0319H91.8271L90.0146 3.96834H89.9692V16.0319H87.7937V0.09906Z" fill="#FF452B"/>
<path d="M99.9846 0.09906H106.782V2.37546H102.477V6.5865H105.899V8.8629H102.477V13.7565H106.782V16.0329H99.9846V0.09906Z" fill="#FF452B"/>
<path d="M108.209 0.09906H110.702V13.7565H114.804V16.0329H108.209V0.09906Z" fill="#FF452B"/>
<path d="M116.004 0.09906H122.801V2.37546H118.496V6.5865H121.918V8.8629H118.496V13.7565H122.801V16.0329H116.004V0.09906Z" fill="#FF452B"/>
<path d="M124.229 0.09906H126.722V13.7565H130.824V16.0329H124.229V0.09906Z" fill="#FF452B"/>
<path d="M134.041 0.09906H137.417L140 16.0319H137.507L137.053 12.8679V12.9135H134.221L133.767 16.0319H131.456L134.041 0.09906ZM136.759 10.752L135.649 2.8767H135.604L134.516 10.752H136.759Z" fill="#FF452B"/>
<path d="M60.1083 18.0953H63.2354L65.6604 27.6328H65.7058V18.0953H67.9266V34.0281H65.3655L62.3745 22.3965H62.3292V34.0281H60.1083V18.0953Z" fill="#FF452B"/>
<path d="M69.6021 30.2499V21.8734C69.6021 19.3246 70.9393 17.8674 73.386 17.8674C75.8326 17.8674 77.1699 19.3246 77.1699 21.8734V30.2499C77.1699 32.7998 75.8326 34.2559 73.386 34.2559C70.9393 34.2559 69.6021 32.7988 69.6021 30.2499ZM74.6778 30.4094V21.7139C74.6778 20.5757 74.1788 20.1438 73.386 20.1438C72.5931 20.1438 72.0941 20.5767 72.0941 21.7139V30.4094C72.0941 31.5476 72.5931 31.9795 73.386 31.9795C74.1788 31.9795 74.6778 31.5466 74.6778 30.4094Z" fill="#FF452B"/>
<path d="M78.8473 18.0953H81.9744L84.3994 27.6328H84.4448V18.0953H86.6656V34.0281H84.1045L81.1135 22.3965H81.0682V34.0281H78.8473V18.0953Z" fill="#FF452B"/>
<path d="M92.1476 18.0953H95.8181C98.3111 18.0953 99.534 19.4841 99.534 22.0329V23.603C99.534 26.1528 98.3101 27.5407 95.8181 27.5407H94.6397V34.0281H92.1467L92.1476 18.0953ZM95.8181 25.2652C96.611 25.2652 97.0419 24.9007 97.0419 23.7625V21.8734C97.0419 20.7352 96.611 20.3717 95.8181 20.3717H94.6397V25.2652H95.8181Z" fill="#FF452B"/>
<path d="M100.894 18.0953H104.587C107.17 18.0953 108.28 19.3018 108.28 21.7595V22.7382C108.28 24.3767 107.76 25.4237 106.649 25.8794V25.925C107.896 26.3123 108.303 27.4951 108.303 29.294V32.0935C108.303 32.8671 108.326 33.4367 108.575 34.0281H106.037C105.901 33.618 105.81 33.3684 105.81 32.0707V29.1573C105.81 27.6774 105.379 27.1999 104.247 27.1999H103.386V34.0281H100.893L100.894 18.0953ZM104.293 24.9235C105.222 24.9235 105.789 24.5134 105.789 23.2395V22.0101C105.789 20.8719 105.404 20.3717 104.52 20.3717H103.387V24.9245L104.293 24.9235Z" fill="#FF452B"/>
<path d="M109.844 30.2499V21.8734C109.844 19.3246 111.181 17.8674 113.628 17.8674C116.075 17.8674 117.412 19.3246 117.412 21.8734V30.2499C117.412 32.7998 116.075 34.2559 113.628 34.2559C111.181 34.2559 109.844 32.7988 109.844 30.2499ZM114.92 30.4094V21.7139C114.92 20.5757 114.421 20.1438 113.628 20.1438C112.835 20.1438 112.336 20.5767 112.336 21.7139V30.4094C112.336 31.5476 112.835 31.9795 113.628 31.9795C114.421 31.9795 114.92 31.5466 114.92 30.4094Z" fill="#FF452B"/>
<path d="M119.089 18.0953H125.684V20.3717H121.583V24.8106H124.8V27.087H121.583V34.0291H119.089V18.0953Z" fill="#FF452B"/>
<path d="M126.884 18.0953H129.377V34.0281H126.884V18.0953Z" fill="#FF452B"/>
<path d="M133.183 20.3707H130.577V18.0943H138.282V20.3707H135.677V34.0281H133.184L133.183 20.3707Z" fill="#FF452B"/>
<path d="M59.6261 44.6047V39.5982C59.6261 38.0747 60.4249 37.204 61.8884 37.204C63.3518 37.204 64.1506 38.0747 64.1506 39.5982V44.6047C64.1506 46.1283 63.3518 46.999 61.8884 46.999C60.4249 46.999 59.6261 46.1283 59.6261 44.6047ZM62.6595 44.6998V39.5021C62.6595 38.8216 62.3617 38.5631 61.8874 38.5631C61.413 38.5631 61.1152 38.8216 61.1152 39.5021V44.6998C61.1152 45.3804 61.413 45.6389 61.8874 45.6389C62.3617 45.6389 62.6595 45.3804 62.6595 44.6998Z" fill="#FF452B"/>
<path d="M65.1525 37.3397H67.3605C68.9049 37.3397 69.5686 38.0608 69.5686 39.5299V40.1153C69.5686 41.095 69.2569 41.7211 68.5932 41.9925V42.0203C69.3378 42.2511 69.5824 42.9593 69.5824 44.0341V45.7073C69.5824 46.1699 69.5962 46.5097 69.7451 46.8633H68.2284C68.1475 46.6186 68.0933 46.469 68.0933 45.6934V43.9519C68.0933 43.0673 67.8359 42.782 67.1584 42.782H66.6436V46.8633H65.1535L65.1525 37.3397ZM67.184 41.4209C67.7392 41.4209 68.0775 41.1763 68.0775 40.4145V39.6795C68.0775 38.9989 67.8477 38.6998 67.3191 38.6998H66.6416V41.4209H67.184Z" fill="#FF452B"/>
<path d="M70.5024 44.6047V39.5982C70.5024 38.0747 71.2608 37.204 72.7233 37.204C74.1857 37.204 74.9441 38.0747 74.9441 39.5982V40.4145H73.5359V39.5031C73.5359 38.8226 73.238 38.564 72.7637 38.564C72.2894 38.564 71.9915 38.8226 71.9915 39.5031V44.7137C71.9915 45.3942 72.2894 45.6389 72.7637 45.6389C73.238 45.6389 73.5359 45.3942 73.5359 44.7137V42.8494H72.7913V41.4893H74.9451V44.6047C74.9451 46.1283 74.1867 46.999 72.7243 46.999C71.2618 46.999 70.5024 46.1283 70.5024 44.6047Z" fill="#FF452B"/>
<path d="M77.0574 37.3397H79.0751L80.6194 46.8633H79.1294L78.8582 44.9722V45H77.1649L76.8937 46.8643H75.5121L77.0565 37.3407L77.0574 37.3397ZM78.6826 43.7072L78.019 38.9999H77.9923L77.3424 43.7072H78.6826Z" fill="#FF452B"/>
<path d="M81.3374 37.3397H83.2061L84.6558 43.0406H84.6824V37.3397H86.0098V46.8633H84.4793L82.6914 39.9113H82.6647V46.8633H81.3374V37.3397Z" fill="#FF452B"/>
<path d="M87.1212 37.3397H88.6113V46.8633H87.1212V37.3397Z" fill="#FF452B"/>
<path d="M89.4643 44.6047V44.0609H90.8725V44.7137C90.8725 45.3942 91.1704 45.6389 91.6447 45.6389C92.119 45.6389 92.4169 45.3942 92.4169 44.6869C92.4169 43.8974 92.119 43.3942 91.1437 42.5373C89.8972 41.4358 89.4909 40.6602 89.4909 39.5715C89.4909 38.0747 90.2631 37.204 91.7118 37.204C93.1604 37.204 93.8783 38.0747 93.8783 39.5982V39.9925H92.4701V39.5031C92.4701 38.8226 92.1989 38.564 91.7256 38.564C91.2522 38.564 90.981 38.8226 90.981 39.4754C90.981 40.1688 91.2926 40.673 92.268 41.5299C93.5145 42.6315 93.907 43.3942 93.907 44.577C93.907 46.1283 93.121 46.999 91.6585 46.999C90.196 46.999 89.4643 46.1283 89.4643 44.6047Z" fill="#FF452B"/>
<path d="M95.8704 37.3397H97.8881L99.4324 46.8633H97.9423L97.6711 44.9722V45H95.9779L95.7067 46.8643H94.3251L95.8694 37.3407L95.8704 37.3397ZM97.4956 43.7072L96.8319 38.9999H96.8053L96.1554 43.7072H97.4956Z" fill="#FF452B"/>
<path d="M100.693 38.7008H99.1356V37.3407H103.741V38.7008H102.184V46.8643H100.694L100.693 38.7008Z" fill="#FF452B"/>
<path d="M104.458 37.3397H105.948V46.8633H104.458V37.3397Z" fill="#FF452B"/>
<path d="M106.95 44.6047V39.5982C106.95 38.0747 107.749 37.204 109.212 37.204C110.676 37.204 111.474 38.0747 111.474 39.5982V44.6047C111.474 46.1283 110.676 46.999 109.212 46.999C107.749 46.999 106.95 46.1283 106.95 44.6047ZM109.983 44.6998V39.5021C109.983 38.8216 109.685 38.5631 109.211 38.5631C108.737 38.5631 108.439 38.8216 108.439 39.5021V44.6998C108.439 45.3804 108.737 45.6389 109.211 45.6389C109.685 45.6389 109.983 45.3804 109.983 44.6998Z" fill="#FF452B"/>
<path d="M112.476 37.3397H114.345L115.795 43.0406H115.821V37.3397H117.149V46.8633H115.618L113.83 39.9113H113.804V46.8633H112.476V37.3397Z" fill="#FF452B"/>
</svg>
